<svg width="21" height="20" viewBox="0 0 21 20" fill="none" xmlns="http://www.w3.org/2000/svg">
<g clip-path="url(#clip0_1_918)">
<path d="M3.25469 16.1029L3.38117 15.7313L3.14791 15.4156C2.02348 13.8936 1.36314 12.0213 1.36314 10C1.36314 4.90924 5.56646 0.75 10.7566 0.75H10.7617C15.9517 0.75 20.1551 4.91043 20.1551 10C20.1551 15.0896 15.9517 19.25 10.7617 19.25C8.84731 19.25 7.07546 18.6893 5.59014 17.7195L5.29309 17.5256L4.95472 17.6322L2.46745 18.4158L3.25469 16.1029Z" stroke="white" stroke-width="1.5"/>
<path d="M15.6508 13.6596C15.4441 14.2775 14.6238 14.7899 13.9695 14.9396C13.5218 15.0405 12.9371 15.121 10.9688 14.2571C8.45118 13.1528 6.82985 10.4443 6.70349 10.2685C6.58248 10.0928 5.68614 8.83434 5.68614 7.53279C5.68614 6.23125 6.31047 5.59749 6.56213 5.32539C6.76881 5.10204 7.11043 5 7.43812 5C7.54414 5 7.63945 5.00567 7.72512 5.0102C7.97678 5.02154 8.10314 5.03741 8.26913 5.45803C8.47581 5.98523 8.97913 7.28677 9.0391 7.42055C9.10014 7.55433 9.16118 7.73573 9.07551 7.91147C8.99519 8.09287 8.92451 8.17336 8.79815 8.32755C8.67178 8.48174 8.55184 8.59965 8.42548 8.76518C8.30982 8.90916 8.17917 9.06335 8.32482 9.32978C8.47046 9.59055 8.97378 10.4601 9.71483 11.1585C10.6711 12.0598 11.4465 12.3478 11.7238 12.4703C11.9305 12.561 12.1768 12.5394 12.3278 12.3694C12.5195 12.1506 12.7562 11.7878 12.9971 11.4306C13.1685 11.1744 13.3848 11.1426 13.6118 11.2333C13.8431 11.3184 15.0671 11.9589 15.3188 12.0916C15.5705 12.2254 15.7364 12.2889 15.7975 12.4011C15.8575 12.5133 15.8575 13.0405 15.6508 13.6596Z" fill="#FAFAFA"/>
</g>
<defs>
<clipPath id="clip0_1_918">
<rect width="20.292" height="20" fill="white" transform="translate(0.613144)"/>
</clipPath>
</defs>
</svg>
